<svg width="634" height="749" viewBox="0 0 634 749" fill="none" xmlns="http://www.w3.org/2000/svg">
<path d="M60.8718 46.0805L61.0717 50.7797L41.0749 49.9799L40.875 45.5806L60.8718 46.0805Z" fill="#989898"/>
<path d="M40.9763 40.0814L60.6732 38.6816L60.8732 46.0805L39.4766 45.8805L40.9763 40.0814Z" fill="#B2B2B2"/>
<path d="M42.9758 43.0805L40.6762 319.537L35.877 324.536L36.9768 41.2808L42.9758 43.0805Z" fill="#996F7C"/>
<path d="M60.0747 20.5842L42.9774 43.0807L38.5781 41.7809L59.2748 13.4854L60.0747 20.5842Z" fill="#965964"/>
<path d="M59.0759 104.471L42.2786 120.268L39.0791 119.369L59.0759 99.1719V104.471Z" fill="#965964"/>
<path d="M58.0744 231.451L41.2771 243.349L37.1777 241.949L58.0744 226.152V231.451Z" fill="#965964"/>
<path d="M33.2783 332.435L61.1739 312.538L62.3737 0.787598L35.7779 40.4813L33.2783 332.435ZM58.6743 85.3741L38.6775 106.671L38.5775 41.7811L59.3742 13.4856L58.6743 85.3741ZM59.0742 99.172L58.1744 212.054L37.2777 228.951L38.9774 119.269L59.0742 99.172ZM57.4745 306.539L35.8779 323.236L37.1777 241.949L58.1744 226.152L57.4745 306.539Z" fill="#DCB8BF"/>
<path d="M62.3746 0.887207L577.093 87.4734L577.393 360.93L61.1748 306.539L62.3746 0.887207Z" fill="#E5E5E5"/>
<g style="mix-blend-mode:screen">
<path opacity="0.7" d="M337.429 51.8793C271.139 53.2791 218.648 114.769 220.148 189.157C221.747 263.546 276.739 322.736 343.128 321.336C409.417 319.937 461.909 258.446 460.409 184.058C458.81 109.67 403.818 50.4795 337.429 51.8793Z" fill="url(#paint0_radial)"/>
<path opacity="0.7" d="M215.248 38.6813C152.158 18.1845 82.3693 58.978 59.3729 129.767C36.3766 200.556 68.9714 274.544 132.061 295.041C195.151 315.537 264.94 274.744 287.937 203.955C310.833 133.166 278.338 59.178 215.248 38.6813Z" fill="url(#paint1_radial)"/>
<path opacity="0.7" d="M489.406 88.0737C554.795 70.3766 582.591 107.171 601.988 178.759C621.385 250.248 582.591 336.634 549.896 341.233C482.807 350.632 425.416 321.137 406.019 249.648C386.722 178.059 424.016 105.771 489.406 88.0737Z" fill="url(#paint2_radial)"/>
</g>
<path d="M557.788 350.532L565.787 331.935L539.191 332.735L543.591 350.332L557.788 350.532Z" fill="url(#paint3_linear)"/>
<path d="M543.59 350.332L533.092 351.632L525.093 337.134L539.191 332.735L543.59 350.332Z" fill="url(#paint4_linear)"/>
<path d="M557.789 350.532L544.291 352.632L533.093 351.632L543.591 350.332L557.789 350.532Z" fill="#1A1A1A"/>
<path d="M352.82 328.535L362.118 310.538L335.522 309.438L338.622 327.236L352.82 328.535Z" fill="url(#paint5_linear)"/>
<path d="M338.624 327.236L328.126 327.736L321.127 312.738L335.525 309.438L338.624 327.236Z" fill="url(#paint6_linear)"/>
<path d="M352.819 328.536L339.121 329.635L328.123 327.736L338.621 327.236L352.819 328.536Z" fill="#1A1A1A"/>
<path d="M137.254 307.739L150.452 292.341L124.756 285.242L123.756 303.339L137.254 307.739Z" fill="url(#paint7_linear)"/>
<path d="M123.759 303.339L113.36 301.44L109.961 285.242H124.759L123.759 303.339Z" fill="url(#paint8_linear)"/>
<path d="M137.256 307.739L123.658 305.739L113.359 301.44L123.758 303.34L137.256 307.739Z" fill="#1A1A1A"/>
<path d="M66.5732 302.04L633.283 364.63V358.731L66.5732 296.141V302.04Z" fill="#B90029"/>
<path d="M66.5713 302.04L0.381836 352.932V347.033L66.5713 296.141V302.04Z" fill="#FF9999"/>
<path d="M0.381836 352.932L516.4 401.624L633.381 364.73L66.6713 302.14L0.381836 352.932ZM349.926 367.23L388.12 353.232L572.491 371.129L531.198 385.327L349.926 367.23ZM262.04 357.931L42.975 335.235L66.4713 317.638L290.236 342.534L262.04 357.931Z" fill="#E60033"/>
<path d="M290.338 342.634L300.736 343.434L262.442 364.53L262.042 357.931L290.338 342.634Z" fill="#FF9999"/>
<path d="M262.444 364.53L36.2803 340.034L42.9792 335.235L262.044 357.931L262.444 364.53Z" fill="#77192D"/>
<path d="M349.928 367.229L342.129 370.629L530.299 389.226L531.199 385.327L349.928 367.229Z" fill="#77192D"/>
<path d="M530.299 389.226L583.79 372.229L572.492 371.129L531.199 385.327L530.299 389.226Z" fill="#FF9999"/>
<path d="M341.921 878.448L342.021 395.825C342.021 358.331 329.023 353.632 313.026 353.632C297.029 353.632 284.031 358.331 284.031 395.825L283.931 878.448" fill="url(#paint9_linear)"/>
<path d="M341.921 878.448L342.021 395.825C342.021 358.331 329.023 353.632 313.026 353.632C297.029 353.632 284.031 358.331 284.031 395.825L283.931 878.448" fill="url(#paint10_linear)"/>
<path d="M342.026 577.896V371.629C342.026 355.632 329.028 353.632 313.031 353.632C297.033 353.632 284.035 355.632 284.035 371.629V577.896H342.026Z" fill="url(#paint11_linear)"/>
<defs>
<radialGradient id="paint0_radial" cx="0" cy="0" r="1" gradientUnits="userSpaceOnUse" gradientTransform="translate(339.818 187.479) rotate(-90.9535) scale(134.721 118.123)">
<stop stop-color="white"/>
<stop offset="0.0916122" stop-color="#FFFBFC" stop-opacity="0.9036"/>
<stop offset="0.1916" stop-color="#FFEDF2" stop-opacity="0.7983"/>
<stop offset="0.2957" stop-color="#FED8E1" stop-opacity="0.6889"/>
<stop offset="0.4025" stop-color="#FEB9CA" stop-opacity="0.5765"/>
<stop offset="0.5113" stop-color="#FD92AC" stop-opacity="0.4619"/>
<stop offset="0.622" stop-color="#FC6188" stop-opacity="0.3455"/>
<stop offset="0.7322" stop-color="#FB2A5E" stop-opacity="0.2295"/>
<stop offset="0.7603" stop-color="#FB1A52" stop-opacity="0.2"/>
<stop offset="0.9698" stop-color="#FA1D63" stop-opacity="0.0251545"/>
<stop offset="1" stop-color="#FA1D66" stop-opacity="0"/>
</radialGradient>
<radialGradient id="paint1_radial" cx="0" cy="0" r="1" gradientUnits="userSpaceOnUse" gradientTransform="translate(172.793 167.477) rotate(-71.7554) scale(134.719 118.12)">
<stop stop-color="white"/>
<stop offset="0.0916122" stop-color="#FFFBFC" stop-opacity="0.9036"/>
<stop offset="0.1916" stop-color="#FFEDF2" stop-opacity="0.7983"/>
<stop offset="0.2957" stop-color="#FED8E1" stop-opacity="0.6889"/>
<stop offset="0.4025" stop-color="#FEB9CA" stop-opacity="0.5765"/>
<stop offset="0.5113" stop-color="#FD92AC" stop-opacity="0.4619"/>
<stop offset="0.622" stop-color="#FC6188" stop-opacity="0.3455"/>
<stop offset="0.7322" stop-color="#FB2A5E" stop-opacity="0.2295"/>
<stop offset="0.7603" stop-color="#FB1A52" stop-opacity="0.2"/>
<stop offset="0.9698" stop-color="#FA1D63" stop-opacity="0.0251545"/>
<stop offset="1" stop-color="#FA1D66" stop-opacity="0"/>
</radialGradient>
<radialGradient id="paint2_radial" cx="0" cy="0" r="1" gradientUnits="userSpaceOnUse" gradientTransform="translate(505.862 219.198) rotate(-105.421) scale(120.797 108.619)">
<stop stop-color="white"/>
<stop offset="0.0916122" stop-color="#FFFBFC" stop-opacity="0.9036"/>
<stop offset="0.1916" stop-color="#FFEDF2" stop-opacity="0.7983"/>
<stop offset="0.2957" stop-color="#FED8E1" stop-opacity="0.6889"/>
<stop offset="0.4025" stop-color="#FEB9CA" stop-opacity="0.5765"/>
<stop offset="0.5113" stop-color="#FD92AC" stop-opacity="0.4619"/>
<stop offset="0.622" stop-color="#FC6188" stop-opacity="0.3455"/>
<stop offset="0.7322" stop-color="#FB2A5E" stop-opacity="0.2295"/>
<stop offset="0.7603" stop-color="#FB1A52" stop-opacity="0.2"/>
<stop offset="0.9698" stop-color="#FA1D63" stop-opacity="0.0251545"/>
<stop offset="1" stop-color="#FA1D66" stop-opacity="0"/>
</radialGradient>
<linearGradient id="paint3_linear" x1="542.963" y1="345.261" x2="564.629" y2="331.055" gradientUnits="userSpaceOnUse">
<stop stop-color="#B90029"/>
<stop offset="0.1601" stop-color="#C11236"/>
<stop offset="0.4822" stop-color="#D74259"/>
<stop offset="0.933" stop-color="#FA8D90"/>
<stop offset="1" stop-color="#FF9999"/>
</linearGradient>
<linearGradient id="paint4_linear" x1="537.67" y1="351.618" x2="532.28" y2="335.208" gradientUnits="userSpaceOnUse">
<stop stop-color="#B90029"/>
<stop offset="0.1601" stop-color="#C11236"/>
<stop offset="0.4822" stop-color="#D74259"/>
<stop offset="0.933" stop-color="#FA8D90"/>
<stop offset="1" stop-color="#FF9999"/>
</linearGradient>
<linearGradient id="paint5_linear" x1="338.25" y1="322.202" x2="360.872" y2="309.581" gradientUnits="userSpaceOnUse">
<stop stop-color="#B90029"/>
<stop offset="0.1601" stop-color="#C11236"/>
<stop offset="0.4822" stop-color="#D74259"/>
<stop offset="0.933" stop-color="#FA8D90"/>
<stop offset="1" stop-color="#FF9999"/>
</linearGradient>
<linearGradient id="paint6_linear" x1="332.519" y1="328.165" x2="328.315" y2="311.413" gradientUnits="userSpaceOnUse">
<stop stop-color="#B90029"/>
<stop offset="0.1601" stop-color="#C11236"/>
<stop offset="0.4822" stop-color="#D74259"/>
<stop offset="0.933" stop-color="#FA8D90"/>
<stop offset="1" stop-color="#FF9999"/>
</linearGradient>
<linearGradient id="paint7_linear" x1="124.59" y1="298.358" x2="149.488" y2="291.2" gradientUnits="userSpaceOnUse">
<stop stop-color="#B90029"/>
<stop offset="0.1601" stop-color="#C11236"/>
<stop offset="0.4822" stop-color="#D74259"/>
<stop offset="0.933" stop-color="#FA8D90"/>
<stop offset="1" stop-color="#FF9999"/>
</linearGradient>
<linearGradient id="paint8_linear" x1="117.656" y1="302.865" x2="117.364" y2="285.595" gradientUnits="userSpaceOnUse">
<stop stop-color="#B90029"/>
<stop offset="0.1601" stop-color="#C11236"/>
<stop offset="0.4822" stop-color="#D74259"/>
<stop offset="0.933" stop-color="#FA8D90"/>
<stop offset="1" stop-color="#FF9999"/>
</linearGradient>
<linearGradient id="paint9_linear" x1="342.018" y1="616.017" x2="283.998" y2="616.004" gradientUnits="userSpaceOnUse">
<stop stop-color="#FF334F"/>
<stop offset="0.0541615" stop-color="#F7586F"/>
<stop offset="0.1179" stop-color="#EF7C8F"/>
<stop offset="0.1776" stop-color="#E996A5"/>
<stop offset="0.2311" stop-color="#E5A5B3"/>
<stop offset="0.2732" stop-color="#E4ABB8"/>
<stop offset="0.3636" stop-color="#E391A2"/>
<stop offset="0.5803" stop-color="#E05870"/>
<stop offset="0.7663" stop-color="#DE2F4C"/>
<stop offset="0.9122" stop-color="#DC1536"/>
<stop offset="1" stop-color="#DC0C2E"/>
</linearGradient>
<linearGradient id="paint10_linear" x1="312.976" y1="753.662" x2="312.976" y2="576.34" gradientUnits="userSpaceOnUse">
<stop offset="0.363128" stop-color="#F72046"/>
<stop offset="1" stop-color="#FB3F5C" stop-opacity="0"/>
</linearGradient>
<linearGradient id="paint11_linear" x1="313.052" y1="441.691" x2="313.07" y2="365.395" gradientUnits="userSpaceOnUse">
<stop stop-color="#FF334F" stop-opacity="0"/>
<stop offset="0.6298" stop-color="#ED243F" stop-opacity="0.6298"/>
<stop offset="1" stop-color="#E60033"/>
</linearGradient>
</defs>
</svg>
