<svg width="26" height="26" viewBox="0 0 26 26" fill="none" xmlns="http://www.w3.org/2000/svg">
<path d="M19.6748 2.66307C13.6972 -0.788076 6.05337 1.26008 2.60222 7.23765C-0.848928 13.2152 1.19923 20.859 7.1768 24.3102C13.1544 27.7613 20.7982 25.7132 24.2493 19.7356C27.7005 13.7581 25.6523 6.11422 19.6748 2.66307ZM8.2183 22.5063C3.23701 19.6303 1.53021 13.2604 4.40616 8.27915C7.28211 3.29786 13.652 1.59106 18.6333 4.46701C23.6145 7.34296 25.3214 13.7128 22.4454 18.6941C19.5695 23.6754 13.1996 25.3822 8.2183 22.5063Z" fill="#282937"/>
<path d="M18.0751 13.7657C19.0718 14.3411 20.3451 13.9999 20.9205 13.0032C21.496 12.0066 21.1548 10.7333 20.1581 10.1578C19.1614 9.58241 17.8881 9.92356 17.3126 10.9203C16.7373 11.9169 17.0784 13.1902 18.0751 13.7657Z" fill="#282937"/>
<path d="M10.8595 9.59969C11.8561 10.1751 13.1295 9.83395 13.7049 8.83725C14.2803 7.84059 13.9392 6.56724 12.9425 5.9918C11.9458 5.4164 10.6724 5.75758 10.097 6.75428C9.52158 7.75094 9.86276 9.02424 10.8595 9.59969Z" fill="#282937"/>
<path d="M18.8369 16.6108C18.3388 16.3232 17.7018 16.4938 17.4142 16.992C16.0448 19.3639 12.6726 20.2675 10.3006 18.898C7.92872 17.5286 7.02513 14.1564 8.39456 11.7845C8.68216 11.2863 8.51149 10.6494 8.01335 10.3618C7.51522 10.0742 6.87826 10.2448 6.59066 10.743C4.64603 14.1112 5.891 18.7573 9.25916 20.7019C12.6273 22.6465 17.2735 21.4016 19.2181 18.0334C19.5057 17.5353 19.3351 16.8984 18.8369 16.6108Z" fill="#282937"/>
</svg>
