<svg width="419" height="357" viewBox="0 0 419 357" fill="none" xmlns="http://www.w3.org/2000/svg">
<path d="M380.993 156.435C388.621 157.781 402.618 170.063 408.603 177.241C407.563 183.135 395.482 186.678 392.366 188.289C389.25 189.901 378.477 188.947 370.308 187.101C363.772 185.624 361.484 183.609 361.157 182.786C355.979 178.092 345.982 167.82 347.428 164.293C349.235 159.885 371.359 154.736 380.993 156.435Z" fill="white"/>
<path d="M407.238 177.739C400.049 170.615 395.284 162.668 385.656 158.842C373.69 154.096 359.37 158.199 348.69 165.259C347.346 166.14 345.959 164.032 347.308 163.126C357.226 156.597 369.139 153.081 380.625 154.654C394.05 156.462 399.879 166.806 408.858 175.709C409.996 176.841 408.399 178.875 407.238 177.739Z" fill="#282937"/>
<path d="M409.209 177.82C402.425 189.187 386.664 190.508 375.497 189.656C363.528 188.717 349.898 177.956 346.524 165.49C346.087 163.896 348.385 162.943 348.817 164.563C351.729 175.298 363.093 184.302 372.864 186.61C382.9 188.965 400.747 187.188 406.997 176.738C407.871 175.295 410.082 176.377 409.209 177.82Z" fill="#282937"/>
<path d="M404.469 172.221C407.056 168.924 410.376 166.529 413.804 164.365C415.167 163.514 416.554 165.622 415.186 166.498C411.929 168.533 408.762 170.769 406.302 173.902C405.279 175.212 403.445 173.531 404.469 172.221Z" fill="#282937"/>
<path d="M397.394 164.586C399.901 161.461 402.708 158.603 405.968 156.409C407.316 155.502 408.698 157.636 407.35 158.543C404.262 160.607 401.606 163.306 399.256 166.245C398.208 167.551 396.346 165.892 397.394 164.586Z" fill="#282937"/>
<path d="M388.637 158.223C390.831 154.485 392.717 150.532 395.482 147.213C396.549 145.937 398.406 147.622 397.32 148.868C394.688 151.997 392.91 155.756 390.824 159.301C390.003 160.727 387.787 159.671 388.637 158.223Z" fill="#282937"/>
<path d="M378.058 155.292C378.876 151.071 378.399 146.755 379.842 142.644C380.393 141.064 382.6 142.172 382.025 143.747C380.68 147.583 381.204 151.774 380.46 155.715C380.144 157.363 377.742 156.94 378.058 155.292Z" fill="#282937"/>
<path d="M367.73 155.734C366.71 151.828 366.034 147.796 364.67 144.015C364.103 142.452 366.421 141.529 366.963 143.089C368.322 146.895 369.003 150.901 370.023 154.807C370.46 156.402 368.162 157.354 367.73 155.734Z" fill="#282937"/>
<path d="M358.363 158.42C356.204 154.792 354.489 150.897 352.74 147.048C352.064 145.545 354.381 144.623 355.033 146.122C356.689 149.794 358.321 153.462 360.363 156.91C361.229 158.314 359.201 159.846 358.363 158.42Z" fill="#282937"/>
<path d="M349.012 162.549C347.896 159.61 346.15 157.013 344.728 154.261C343.995 152.801 345.999 151.264 346.757 152.729C348.262 155.709 350.129 158.46 351.329 161.626C351.924 163.169 349.607 164.091 349.012 162.549Z" fill="#282937"/>
<path d="M373.66 153.011C382.596 153.26 389.58 158.36 391.277 167.979C392.756 176.307 386.721 186.626 378.582 187.88C370.165 189.159 360.698 182.59 359.006 173.524C357.055 163.013 364.102 154.346 373.66 153.011C375.841 152.695 376.094 156.313 373.953 156.599C365.694 157.758 360.158 165.439 362.783 174.264C364.785 180.99 372.682 185.771 379.117 184.07C385.519 182.362 388.592 174.652 387.955 168.351C387.161 160.806 380.465 156.789 373.986 156.605C371.802 156.551 371.509 152.963 373.66 153.011Z" fill="#282937"/>
<path d="M373.285 156.529C382.52 156.381 386.053 166.14 382.101 172.486C377.776 179.273 370.881 177.867 366.635 172.487C364.181 169.326 363.681 164.796 365.946 161.325C367.949 157.999 369.974 156.897 373.285 156.529Z" fill="#282937"/>
<path d="M312.66 213.8C326.82 216.297 352.8 239.095 363.91 252.419C361.981 263.36 339.554 269.937 333.771 272.928C327.987 275.919 307.99 274.148 292.825 270.722C280.694 267.982 276.447 264.241 275.84 262.713C266.227 253.999 247.672 234.933 250.355 228.386C253.71 220.203 294.776 210.645 312.66 213.8Z" fill="white"/>
<path d="M361.371 253.345C348.027 240.123 339.181 225.371 321.311 218.268C299.098 209.46 272.518 217.075 252.693 230.181C250.198 231.816 247.624 227.903 250.128 226.22C268.538 214.101 290.65 207.575 311.971 210.494C336.892 213.851 347.711 233.051 364.379 249.577C366.491 251.679 363.527 255.455 361.371 253.345Z" fill="#282937"/>
<path d="M365.032 253.496C352.439 274.596 323.185 277.046 302.455 275.466C280.238 273.723 254.938 253.748 248.675 230.608C247.863 227.649 252.128 225.881 252.931 228.888C258.336 248.813 279.431 265.527 297.568 269.812C316.196 274.184 349.324 270.885 360.927 251.488C362.548 248.809 366.653 250.818 365.032 253.496Z" fill="#282937"/>
<path d="M356.232 243.101C361.034 236.981 367.197 232.534 373.559 228.517C376.09 226.938 378.664 230.85 376.124 232.478C370.08 236.254 364.2 240.405 359.635 246.22C357.735 248.652 354.332 245.532 356.232 243.101Z" fill="#282937"/>
<path d="M343.101 228.928C347.756 223.128 352.967 217.821 359.017 213.75C361.52 212.067 364.086 216.027 361.582 217.71C355.85 221.541 350.921 226.552 346.558 232.008C344.613 234.432 341.157 231.352 343.101 228.928Z" fill="#282937"/>
<path d="M326.845 217.121C330.919 210.181 334.419 202.844 339.551 196.683C341.531 194.315 344.979 197.443 342.963 199.755C338.077 205.564 334.778 212.541 330.906 219.121C329.382 221.768 325.268 219.807 326.845 217.121Z" fill="#282937"/>
<path d="M307.208 211.679C308.728 203.844 307.842 195.832 310.521 188.201C311.543 185.269 315.64 187.325 314.572 190.25C312.076 197.369 313.049 205.149 311.667 212.465C311.081 215.524 306.623 214.737 307.208 211.679Z" fill="#282937"/>
<path d="M288.035 212.497C286.142 205.246 284.887 197.762 282.355 190.745C281.304 187.842 285.605 186.13 286.612 189.025C289.135 196.09 290.399 203.527 292.292 210.777C293.103 213.737 288.838 215.504 288.035 212.497Z" fill="#282937"/>
<path d="M270.65 217.484C266.643 210.749 263.459 203.518 260.214 196.375C258.959 193.584 263.26 191.872 264.47 194.655C267.543 201.471 270.572 208.28 274.362 214.68C275.971 217.285 272.206 220.129 270.65 217.484Z" fill="#282937"/>
<path d="M253.294 225.149C251.222 219.694 247.98 214.874 245.342 209.764C243.981 207.054 247.702 204.202 249.107 206.92C251.901 212.452 255.368 217.56 257.595 223.437C258.699 226.299 254.398 228.011 253.294 225.149Z" fill="#282937"/>
<path d="M299.044 207.442C315.632 207.905 328.596 217.371 331.746 235.227C334.491 250.686 323.289 269.84 308.181 272.168C292.557 274.542 274.985 262.348 271.844 245.52C268.222 226.009 281.302 209.921 299.044 207.442C303.092 206.857 303.562 213.573 299.588 214.103C284.257 216.254 273.981 230.512 278.855 246.893C282.57 259.378 297.229 268.254 309.174 265.095C321.058 261.925 326.762 247.614 325.58 235.917C324.105 221.913 311.677 214.456 299.65 214.114C295.595 214.014 295.052 207.354 299.044 207.442Z" fill="#282937"/>
<path d="M298.35 213.972C315.492 213.697 322.05 231.812 314.714 243.591C306.685 256.19 293.886 253.58 286.004 243.593C281.451 237.726 280.522 229.318 284.726 222.875C288.445 216.7 292.203 214.654 298.35 213.972Z" fill="#282937"/>
<path d="M342.285 37.9737C356.445 40.4711 382.425 63.269 393.535 76.5932C391.606 87.5339 369.179 94.1105 363.396 97.1019C357.612 100.093 337.615 98.3223 322.45 94.8962C310.319 92.1553 306.072 88.4149 305.465 86.8872C295.852 78.1725 277.297 59.1064 279.98 52.5599C283.335 44.3768 324.401 34.8192 342.285 37.9737Z" fill="white"/>
<path d="M390.996 77.5192C377.652 64.2967 368.806 49.5453 350.936 42.4416C328.723 33.6336 302.143 41.2492 282.318 54.3544C279.823 55.9896 277.249 52.0773 279.753 50.3941C298.163 38.2746 320.275 31.7487 341.596 34.6682C366.517 38.0249 377.336 57.2251 394.004 73.7513C396.116 75.8529 393.152 79.6287 390.996 77.5192Z" fill="#282937"/>
<path d="M394.658 77.6696C382.065 98.7694 352.811 101.22 332.081 99.6397C309.864 97.8961 284.563 77.9211 278.301 54.7811C277.489 51.8219 281.754 50.0541 282.557 53.0613C287.962 72.9867 309.057 89.7004 327.194 93.9855C345.822 98.3571 378.95 95.0581 390.553 75.6612C392.174 72.9827 396.279 74.991 394.658 77.6696Z" fill="#282937"/>
<path d="M385.857 67.2744C390.659 61.1547 396.822 56.7076 403.184 52.6911C405.715 51.1117 408.289 55.0241 405.749 56.6514C399.705 60.4276 393.825 64.5785 389.26 70.3942C387.36 72.8261 383.957 69.7062 385.857 67.2744Z" fill="#282937"/>
<path d="M372.726 53.1016C377.381 47.3018 382.592 41.9953 388.642 37.9238C391.145 36.2407 393.711 40.201 391.207 41.8841C385.475 45.7152 380.546 50.7256 376.183 56.1814C374.238 58.6053 370.782 55.5256 372.726 53.1016Z" fill="#282937"/>
<path d="M356.47 41.2947C360.544 34.355 364.044 27.0176 369.176 20.8572C371.156 18.4891 374.604 21.6168 372.588 23.9292C367.702 29.7376 364.403 36.7152 360.531 43.2953C359.007 45.9416 354.893 43.9811 356.47 41.2947Z" fill="#282937"/>
<path d="M336.833 35.8524C338.353 28.0175 337.467 20.0056 340.146 12.3751C341.168 9.44277 345.265 11.4991 344.197 14.4235C341.701 21.5427 342.674 29.3229 341.292 36.6385C340.706 39.6974 336.248 38.9113 336.833 35.8524Z" fill="#282937"/>
<path d="M317.661 36.671C315.768 29.4202 314.513 21.9362 311.981 14.9186C310.93 12.0158 315.231 10.3039 316.238 13.1988C318.761 20.2643 320.025 27.7004 321.918 34.9512C322.729 37.9105 318.464 39.6782 317.661 36.671Z" fill="#282937"/>
<path d="M300.275 41.6573C296.268 34.9232 293.084 27.6919 289.839 20.5486C288.584 17.7582 292.885 16.0462 294.095 18.8288C297.168 25.6453 300.197 32.454 303.987 38.8535C305.596 41.4593 301.831 44.3032 300.275 41.6573Z" fill="#282937"/>
<path d="M282.919 49.322C280.847 43.8677 277.605 39.0472 274.967 33.9376C273.606 31.2273 277.327 28.3755 278.732 31.0936C281.526 36.6258 284.993 41.7331 287.22 47.6101C288.324 50.4728 284.023 52.1847 282.919 49.322Z" fill="#282937"/>
<path d="M328.669 31.6162C345.257 32.0793 358.221 41.5451 361.371 59.4006C364.116 74.8599 352.914 94.0139 337.806 96.3418C322.182 98.7154 304.61 86.5223 301.469 69.6941C297.847 50.1827 310.927 34.0949 328.669 31.6162C332.717 31.0307 333.187 37.7464 329.213 38.2765C313.882 40.4282 303.606 54.6856 308.48 71.0671C312.195 83.5519 326.854 92.4276 338.799 89.2686C350.683 86.0988 356.387 71.7876 355.205 60.0913C353.73 46.0868 341.302 38.6303 329.275 38.2873C325.22 38.1879 324.677 31.5276 328.669 31.6162Z" fill="#282937"/>
<path d="M327.975 38.1454C345.117 37.8705 351.675 55.9859 344.339 67.7649C336.31 80.3639 323.511 77.7539 315.629 67.7668C311.076 61.8997 310.147 53.492 314.351 47.0493C318.07 40.8743 321.828 38.8281 327.975 38.1454Z" fill="#282937"/>
<path d="M62.4052 106.891C73.8173 108.904 94.7575 127.278 103.712 138.018C102.157 146.836 84.0814 152.136 79.4197 154.547C74.758 156.958 58.6412 155.531 46.4184 152.77C36.6403 150.56 33.2177 147.546 32.7287 146.314C24.9806 139.29 10.0251 123.923 12.1879 118.647C14.8915 112.052 47.9907 104.348 62.4052 106.891Z" fill="white"/>
<path d="M101.665 138.764C90.91 128.107 83.7808 116.217 69.3774 110.492C51.474 103.393 30.051 109.531 14.0722 120.093C12.0614 121.411 9.98686 118.258 12.0045 116.902C26.8428 107.133 44.6653 101.874 61.8493 104.227C81.9353 106.932 90.6553 122.407 104.09 135.727C105.792 137.421 103.403 140.464 101.665 138.764Z" fill="#282937"/>
<path d="M104.615 138.886C94.4658 155.892 70.8869 157.867 54.1794 156.594C36.2725 155.189 15.8806 139.089 10.8328 120.438C10.1789 118.053 13.6165 116.629 14.2636 119.052C18.6196 135.112 35.6217 148.583 50.2405 152.037C65.2545 155.56 91.9552 152.901 101.307 137.268C102.614 135.109 105.922 136.727 104.615 138.886Z" fill="#282937"/>
<path d="M97.522 130.507C101.393 125.574 106.36 121.99 111.488 118.753C113.528 117.48 115.602 120.633 113.555 121.945C108.684 124.988 103.944 128.334 100.265 133.021C98.7337 134.981 95.9907 132.467 97.522 130.507Z" fill="#282937"/>
<path d="M86.9409 119.085C90.6921 114.41 94.892 110.133 99.7685 106.851C101.786 105.495 103.854 108.687 101.836 110.043C97.2162 113.131 93.2437 117.169 89.7266 121.567C88.1594 123.52 85.3737 121.038 86.9409 119.085Z" fill="#282937"/>
<path d="M73.8403 109.567C77.1237 103.974 79.9448 98.06 84.0808 93.0948C85.6771 91.1861 88.4559 93.707 86.8305 95.5707C82.8928 100.252 80.2339 105.876 77.1128 111.18C75.8846 113.312 72.5693 111.732 73.8403 109.567Z" fill="#282937"/>
<path d="M58.0101 105.182C59.2347 98.867 58.5208 92.4095 60.6797 86.2594C61.504 83.896 64.8056 85.5533 63.9454 87.9104C61.9333 93.6484 62.7171 99.9191 61.6033 105.815C61.1316 108.281 57.5383 107.647 58.0101 105.182Z" fill="#282937"/>
<path d="M42.5586 105.841C41.0326 99.9965 40.0214 93.9645 37.9806 88.3084C37.1334 85.9688 40.6001 84.589 41.4113 86.9222C43.4453 92.617 44.4633 98.6104 45.9893 104.454C46.6432 106.84 43.2057 108.264 42.5586 105.841Z" fill="#282937"/>
<path d="M28.5465 109.86C25.3168 104.432 22.7506 98.6036 20.1348 92.8462C19.1235 90.5972 22.5902 89.2174 23.5656 91.4601C26.0425 96.9541 28.4835 102.442 31.5385 107.6C32.8354 109.7 29.8007 111.992 28.5465 109.86Z" fill="#282937"/>
<path d="M14.5553 116.039C12.8851 111.642 10.2726 107.757 8.1459 103.639C7.04905 101.454 10.0479 99.1559 11.1807 101.347C13.4326 105.806 16.2266 109.922 18.022 114.659C18.9119 116.966 15.4452 118.346 14.5553 116.039Z" fill="#282937"/>
<path d="M51.4319 101.767C64.8011 102.141 75.2499 109.77 77.7889 124.161C80.0018 136.621 70.9724 152.059 58.7963 153.935C46.2034 155.848 32.0399 146.021 29.5087 132.458C26.5897 116.732 37.1319 103.765 51.4319 101.767C54.6944 101.295 55.0732 106.708 51.8699 107.135C39.5137 108.87 31.2315 120.361 35.1593 133.564C38.1539 143.627 49.9686 150.781 59.5964 148.235C69.1744 145.68 73.7722 134.145 72.8193 124.718C71.6303 113.43 61.6138 107.421 51.9197 107.144C48.652 107.064 48.214 101.696 51.4319 101.767Z" fill="#282937"/>
<path d="M50.8697 107.029C64.6863 106.808 69.972 121.409 64.0588 130.902C57.5874 141.057 47.2719 138.953 40.9193 130.904C37.2489 126.175 36.5008 119.398 39.8893 114.206C42.8865 109.229 45.9152 107.579 50.8697 107.029Z" fill="#282937"/>
<path d="M194.951 297.527C206.363 299.54 227.303 317.915 236.257 328.654C234.703 337.472 216.627 342.773 211.966 345.184C207.304 347.595 191.187 346.168 178.964 343.406C169.186 341.197 165.764 338.182 165.275 336.951C157.527 329.927 142.571 314.56 144.734 309.284C147.437 302.688 180.537 294.985 194.951 297.527Z" fill="white"/>
<path d="M234.21 329.4C223.455 318.743 216.326 306.854 201.922 301.128C184.019 294.029 162.596 300.167 146.617 310.73C144.606 312.048 142.532 308.894 144.549 307.538C159.388 297.77 177.21 292.51 194.394 294.863C214.48 297.568 223.2 313.043 236.635 326.363C238.337 328.057 235.948 331.1 234.21 329.4Z" fill="#282937"/>
<path d="M237.16 329.522C227.011 346.529 203.432 348.504 186.724 347.23C168.817 345.825 148.426 329.725 143.378 311.075C142.724 308.69 146.161 307.265 146.808 309.689C151.165 325.748 168.167 339.219 182.785 342.673C197.799 346.196 224.5 343.537 233.852 327.904C235.159 325.745 238.467 327.364 237.16 329.522Z" fill="#282937"/>
<path d="M230.067 321.144C233.938 316.211 238.905 312.627 244.033 309.39C246.073 308.117 248.147 311.27 246.1 312.582C241.229 315.625 236.489 318.971 232.81 323.658C231.279 325.618 228.536 323.104 230.067 321.144Z" fill="#282937"/>
<path d="M219.486 309.721C223.237 305.047 227.437 300.77 232.313 297.488C234.331 296.132 236.399 299.323 234.381 300.68C229.761 303.768 225.789 307.806 222.272 312.204C220.704 314.157 217.919 311.675 219.486 309.721Z" fill="#282937"/>
<path d="M206.385 300.204C209.669 294.611 212.49 288.697 216.626 283.732C218.222 281.823 221.001 284.344 219.375 286.207C215.438 290.889 212.779 296.513 209.658 301.816C208.429 303.949 205.114 302.369 206.385 300.204Z" fill="#282937"/>
<path d="M190.556 295.818C191.781 289.503 191.067 283.046 193.226 276.896C194.05 274.532 197.351 276.19 196.491 278.547C194.479 284.285 195.263 290.555 194.149 296.452C193.677 298.917 190.084 298.283 190.556 295.818Z" fill="#282937"/>
<path d="M175.104 296.477C173.578 290.633 172.566 284.601 170.526 278.945C169.678 276.606 173.145 275.226 173.956 277.559C175.99 283.254 177.008 289.247 178.534 295.091C179.188 297.476 175.751 298.901 175.104 296.477Z" fill="#282937"/>
<path d="M161.091 300.496C157.862 295.068 155.296 289.24 152.68 283.482C151.668 281.233 155.135 279.854 156.111 282.096C158.587 287.59 161.028 293.078 164.083 298.236C165.38 300.336 162.346 302.628 161.091 300.496Z" fill="#282937"/>
<path d="M147.1 306.675C145.43 302.279 142.818 298.393 140.691 294.275C139.594 292.091 142.593 289.792 143.726 291.983C145.978 296.442 148.772 300.558 150.567 305.295C151.457 307.602 147.99 308.982 147.1 306.675Z" fill="#282937"/>
<path d="M183.977 292.404C197.346 292.777 207.795 300.406 210.334 314.797C212.547 327.257 203.517 342.695 191.341 344.572C178.748 346.485 164.585 336.657 162.054 323.094C159.135 307.368 169.677 294.401 183.977 292.404C187.239 291.932 187.618 297.344 184.415 297.772C172.059 299.506 163.776 310.997 167.704 324.201C170.699 334.263 182.513 341.417 192.141 338.871C201.719 336.316 206.317 324.781 205.364 315.354C204.175 304.067 194.159 298.057 184.465 297.78C181.197 297.7 180.759 292.332 183.977 292.404Z" fill="#282937"/>
<path d="M183.416 297.666C197.232 297.444 202.518 312.045 196.605 321.539C190.133 331.694 179.818 329.59 173.465 321.54C169.795 316.812 169.047 310.035 172.435 304.842C175.432 299.865 178.461 298.216 183.416 297.666Z" fill="#282937"/>
<path d="M239.2 115.382C253.359 117.879 279.339 140.677 290.449 154.001C288.52 164.942 266.093 171.519 260.31 174.51C254.526 177.501 234.529 175.731 219.365 172.304C207.233 169.564 202.986 165.823 202.38 164.295C192.766 155.581 174.211 136.515 176.894 129.968C180.249 121.785 221.315 112.227 239.2 115.382Z" fill="white"/>
<path d="M287.91 154.927C274.566 141.705 265.72 126.953 247.85 119.85C225.637 111.042 199.057 118.657 179.232 131.763C176.737 133.398 174.163 129.485 176.667 127.802C195.077 115.683 217.189 109.157 238.51 112.076C263.431 115.433 274.25 134.633 290.918 151.159C293.03 153.261 290.066 157.037 287.91 154.927Z" fill="#282937"/>
<path d="M291.571 155.078C278.978 176.178 249.724 178.628 228.994 177.048C206.777 175.305 181.477 155.33 175.214 132.19C174.402 129.231 178.667 127.463 179.47 130.47C184.875 150.395 205.97 167.109 224.107 171.394C242.735 175.766 275.863 172.467 287.466 153.07C289.087 150.391 293.192 152.4 291.571 155.078Z" fill="#282937"/>
<path d="M282.771 144.683C287.573 138.563 293.736 134.116 300.098 130.099C302.629 128.52 305.203 132.432 302.664 134.06C296.619 137.836 290.739 141.987 286.174 147.802C284.274 150.234 280.871 147.114 282.771 144.683Z" fill="#282937"/>
<path d="M269.641 130.51C274.295 124.71 279.506 119.403 285.556 115.332C288.059 113.649 290.625 117.609 288.121 119.292C282.389 123.123 277.461 128.134 273.097 133.59C271.152 136.014 267.696 132.934 269.641 130.51Z" fill="#282937"/>
<path d="M253.384 118.703C257.458 111.763 260.958 104.426 266.09 98.2655C268.07 95.8973 271.518 99.025 269.502 101.337C264.616 107.146 261.317 114.123 257.445 120.703C255.921 123.35 251.807 121.389 253.384 118.703Z" fill="#282937"/>
<path d="M233.747 113.261C235.267 105.426 234.381 97.4138 237.06 89.7833C238.082 86.851 242.179 88.9073 241.112 91.8317C238.615 98.9509 239.588 106.731 238.206 114.047C237.62 117.106 233.162 116.319 233.747 113.261Z" fill="#282937"/>
<path d="M214.574 114.08C212.681 106.829 211.426 99.3453 208.894 92.3277C207.843 89.425 212.144 87.7131 213.151 90.6079C215.675 97.6734 216.938 105.11 218.831 112.36C219.642 115.32 215.377 117.087 214.574 114.08Z" fill="#282937"/>
<path d="M197.189 119.066C193.182 112.331 189.998 105.1 186.753 97.9568C185.498 95.1664 189.799 93.4544 191.009 96.237C194.083 103.054 197.111 109.862 200.901 116.262C202.511 118.867 198.745 121.711 197.189 119.066Z" fill="#282937"/>
<path d="M179.832 126.731C177.76 121.276 174.519 116.456 171.88 111.346C170.519 108.636 174.24 105.784 175.645 108.502C178.439 114.035 181.906 119.142 184.133 125.019C185.237 127.881 180.936 129.593 179.832 126.731Z" fill="#282937"/>
<path d="M225.584 109.024C242.171 109.487 255.135 118.953 258.285 136.809C261.031 152.268 249.828 171.422 234.721 173.75C219.096 176.124 201.524 163.93 198.383 147.102C194.761 127.591 207.841 111.503 225.584 109.024C229.631 108.439 230.101 115.155 226.127 115.685C210.796 117.836 200.521 132.094 205.394 148.475C209.109 160.96 223.768 169.836 235.713 166.677C247.597 163.507 253.301 149.196 252.119 137.499C250.644 123.495 238.216 116.038 226.189 115.696C222.134 115.596 221.591 108.936 225.584 109.024Z" fill="#282937"/>
<path d="M224.889 115.554C242.031 115.279 248.589 133.394 241.253 145.173C233.224 157.772 220.425 155.162 212.543 145.175C207.99 139.308 207.061 130.9 211.266 124.457C214.984 118.282 218.742 116.236 224.889 115.554Z" fill="#282937"/>
</svg>
